<svg width="16" height="16" viewBox="0 0 16 16" fill="none" xmlns="http://www.w3.org/2000/svg">
<path d="M7.33341 8.00001C7.33341 8.3682 7.63189 8.66667 8.00008 8.66667C8.36827 8.66667 8.66675 8.3682 8.66675 8.00001C8.66675 7.63182 8.36827 7.33334 8.00008 7.33334C7.63189 7.33334 7.33341 7.63182 7.33341 8.00001Z" stroke="#7F7F7F" stroke-width="2" stroke-linecap="round" stroke-linejoin="round"/>
<path d="M7.33341 12.6667C7.33341 13.0349 7.63189 13.3333 8.00008 13.3333C8.36827 13.3333 8.66675 13.0349 8.66675 12.6667C8.66675 12.2985 8.36827 12 8.00008 12C7.63189 12 7.33341 12.2985 7.33341 12.6667Z" stroke="#7F7F7F" stroke-width="2" stroke-linecap="round" stroke-linejoin="round"/>
<path d="M7.33341 3.33334C7.33341 3.70153 7.63189 4.00001 8.00008 4.00001C8.36827 4.00001 8.66675 3.70153 8.66675 3.33334C8.66675 2.96515 8.36827 2.66667 8.00008 2.66667C7.63189 2.66667 7.33341 2.96515 7.33341 3.33334Z" stroke="#7F7F7F" stroke-width="2" stroke-linecap="round" stroke-linejoin="round"/>
</svg>
